<svg width="512" height="512" viewBox="0 0 512 512" fill="none" xmlns="http://www.w3.org/2000/svg">
  <defs>
    <linearGradient id="v1bg" x1="56" y1="44" x2="456" y2="468" gradientUnits="userSpaceOnUse">
      <stop offset="0" stop-color="#0EA5E9"/>
      <stop offset="0.52" stop-color="#06B6D4"/>
      <stop offset="1" stop-color="#14B8A6"/>
    </linearGradient>
    <radialGradient id="v1shine" cx="0" cy="0" r="1" gradientUnits="userSpaceOnUse" gradientTransform="translate(378 112) rotate(129) scale(244)">
      <stop offset="0" stop-color="#FFFFFF" stop-opacity="0.36"/>
      <stop offset="1" stop-color="#FFFFFF" stop-opacity="0"/>
    </radialGradient>
    <filter id="v1shadow" x="94" y="96" width="324" height="336" filterUnits="userSpaceOnUse" color-interpolation-filters="sRGB">
      <feFlood flood-opacity="0" result="BackgroundImageFix"/>
      <feColorMatrix in="SourceAlpha" type="matrix" values="0 0 0 0 0 0 0 0 0 0 0 0 0 0 0 0 0 0 127 0" result="hardAlpha"/>
      <feOffset dy="10"/>
      <feGaussianBlur stdDeviation="9"/>
      <feColorMatrix type="matrix" values="0 0 0 0 0.02 0 0 0 0 0.11 0 0 0 0 0.16 0 0 0 0.26 0"/>
      <feBlend mode="normal" in2="BackgroundImageFix" result="effect1_dropShadow_0_0"/>
      <feBlend mode="normal" in="SourceGraphic" in2="effect1_dropShadow_0_0" result="shape"/>
    </filter>
  </defs>

  <rect x="40" y="40" width="432" height="432" rx="104" fill="url(#v1bg)"/>
  <rect x="40" y="40" width="432" height="432" rx="104" fill="url(#v1shine)"/>
  <rect x="40" y="40" width="432" height="432" rx="104" stroke="white" stroke-opacity="0.22" stroke-width="2"/>

  <g opacity="0.2" stroke="white" stroke-width="2">
    <path d="M104 150H408"/>
    <path d="M104 208H408"/>
    <path d="M104 266H408"/>
    <path d="M104 324H364"/>
  </g>

  <g filter="url(#v1shadow)">
    <path d="M182 168L124 256L182 344" stroke="#F8FEFF" stroke-width="32" stroke-linecap="round" stroke-linejoin="round"/>
    <path d="M330 168L388 256L330 344" stroke="#F8FEFF" stroke-width="32" stroke-linecap="round" stroke-linejoin="round"/>
    <path d="M284 152L226 360" stroke="#F8FEFF" stroke-width="30" stroke-linecap="round"/>
  </g>

  <circle cx="350" cy="186" r="24" fill="#E6FFFD"/>
  <circle cx="350" cy="186" r="11" fill="#0284C7"/>
</svg>
