<svg width="512" height="512" viewBox="0 0 512 512" fill="none" xmlns="http://www.w3.org/2000/svg">
  <defs>
    <linearGradient id="v2bg" x1="52" y1="56" x2="462" y2="462" gradientUnits="userSpaceOnUse">
      <stop offset="0" stop-color="#F8FAFC"/>
      <stop offset="1" stop-color="#E2E8F0"/>
    </linearGradient>
    <linearGradient id="v2accent" x1="108" y1="112" x2="404" y2="400" gradientUnits="userSpaceOnUse">
      <stop offset="0" stop-color="#0EA5E9"/>
      <stop offset="1" stop-color="#10B981"/>
    </linearGradient>
    <filter id="v2soft" x="92" y="96" width="332" height="332" filterUnits="userSpaceOnUse" color-interpolation-filters="sRGB">
      <feFlood flood-opacity="0" result="BackgroundImageFix"/>
      <feColorMatrix in="SourceAlpha" type="matrix" values="0 0 0 0 0 0 0 0 0 0 0 0 0 0 0 0 0 0 127 0" result="hardAlpha"/>
      <feOffset dy="7"/>
      <feGaussianBlur stdDeviation="7"/>
      <feColorMatrix type="matrix" values="0 0 0 0 0.0588 0 0 0 0 0.0902 0 0 0 0 0.1647 0 0 0 0.18 0"/>
      <feBlend mode="normal" in2="BackgroundImageFix" result="effect1_dropShadow_0_0"/>
      <feBlend mode="normal" in="SourceGraphic" in2="effect1_dropShadow_0_0" result="shape"/>
    </filter>
  </defs>

  <rect x="40" y="40" width="432" height="432" rx="104" fill="url(#v2bg)"/>
  <rect x="40" y="40" width="432" height="432" rx="104" stroke="#CBD5E1" stroke-width="2"/>

  <g opacity="0.35" stroke="#94A3B8" stroke-width="2">
    <path d="M104 166H408"/>
    <path d="M104 224H408"/>
    <path d="M104 282H408"/>
    <path d="M104 340H348"/>
  </g>

  <g filter="url(#v2soft)">
    <rect x="116" y="118" width="280" height="276" rx="66" fill="white"/>
    <rect x="116" y="118" width="280" height="276" rx="66" stroke="#E2E8F0" stroke-width="2"/>

    <path d="M190 190L152 256L190 322" stroke="#0F172A" stroke-width="24" stroke-linecap="round" stroke-linejoin="round"/>
    <path d="M322 190L360 256L322 322" stroke="#0F172A" stroke-width="24" stroke-linecap="round" stroke-linejoin="round"/>
    <path d="M286 176L226 336" stroke="url(#v2accent)" stroke-width="24" stroke-linecap="round"/>
  </g>

  <circle cx="356" cy="170" r="22" fill="#FDBA74"/>
  <circle cx="356" cy="170" r="9" fill="#EA580C"/>
</svg>
