<svg width="512" height="512" viewBox="0 0 512 512" fill="none" xmlns="http://www.w3.org/2000/svg">
  <defs>
    <linearGradient id="bg" x1="64" y1="48" x2="456" y2="464" gradientUnits="userSpaceOnUse">
      <stop offset="0" stop-color="#38BDF8"/>
      <stop offset="0.48" stop-color="#06B6D4"/>
      <stop offset="1" stop-color="#14B8A6"/>
    </linearGradient>
    <radialGradient id="glow" cx="0" cy="0" r="1" gradientUnits="userSpaceOnUse" gradientTransform="translate(384 124) rotate(122.6) scale(238 210)">
      <stop offset="0" stop-color="#FFFFFF" stop-opacity="0.35"/>
      <stop offset="1" stop-color="#FFFFFF" stop-opacity="0"/>
    </radialGradient>
    <filter id="softShadow" x="96" y="104" width="336" height="312" filterUnits="userSpaceOnUse" color-interpolation-filters="sRGB">
      <feFlood flood-opacity="0" result="BackgroundImageFix"/>
      <feColorMatrix in="SourceAlpha" type="matrix" values="0 0 0 0 0 0 0 0 0 0 0 0 0 0 0 0 0 0 127 0" result="hardAlpha"/>
      <feOffset dy="10"/>
      <feGaussianBlur stdDeviation="8"/>
      <feColorMatrix type="matrix" values="0 0 0 0 0.0157 0 0 0 0 0.0902 0 0 0 0 0.1333 0 0 0 0.22 0"/>
      <feBlend mode="normal" in2="BackgroundImageFix" result="effect1_dropShadow_0_1"/>
      <feBlend mode="normal" in="SourceGraphic" in2="effect1_dropShadow_0_1" result="shape"/>
    </filter>
  </defs>

  <rect x="40" y="40" width="432" height="432" rx="104" fill="url(#bg)"/>
  <rect x="40" y="40" width="432" height="432" rx="104" fill="url(#glow)"/>
  <rect x="40" y="40" width="432" height="432" rx="104" stroke="white" stroke-opacity="0.18" stroke-width="2"/>

  <g opacity="0.22" stroke="white" stroke-width="2">
    <path d="M104 154H408"/>
    <path d="M104 214H408"/>
    <path d="M104 274H408"/>
    <path d="M104 334H348"/>
  </g>

  <g filter="url(#softShadow)">
    <path d="M184 174L126 256L184 338" stroke="white" stroke-width="32" stroke-linecap="round" stroke-linejoin="round"/>
    <path d="M328 174L386 256L328 338" stroke="white" stroke-width="32" stroke-linecap="round" stroke-linejoin="round"/>
    <path d="M286 156L226 356" stroke="white" stroke-width="30" stroke-linecap="round"/>
  </g>

  <circle cx="348" cy="186" r="26" fill="#E6FFFD"/>
  <circle cx="348" cy="186" r="12" fill="#0EA5E9"/>
</svg>
